<svg width="1299" height="154" viewBox="0 0 1299 154" fill="none" xmlns="http://www.w3.org/2000/svg">
<g opacity="0.24">
<mask id="path-1-outside-1" maskUnits="userSpaceOnUse" x="0" y="0" width="1299" height="154" fill="black">
<rect fill="white" width="1299" height="154"/>
<path fill-rule="evenodd" clip-rule="evenodd" d="M24.0006 3.99992C35.0462 3.99992 43.9994 12.9541 43.9994 23.9996C43.9994 35.0453 35.0462 43.9997 24.0006 43.9997C12.9537 43.9997 4.00052 35.0453 4.00052 23.9996C4.00052 12.9541 12.9537 3.99992 24.0006 3.99992ZM246.001 148.426L282.742 127.212V84.7859L246.001 63.5729L209.257 84.7859V127.212L246.001 148.426ZM1295 106C1295 89.9835 1282.02 76.9996 1266 76.9996C1249.98 76.9996 1237 89.9835 1237 106C1237 122.016 1249.98 135 1266 135C1282.02 135 1295 122.016 1295 106ZM821.519 43.9981H782.431C780.429 43.9981 779.457 46.0895 780.337 47.6833C781.537 49.8605 798.808 79.9217 799.886 81.7616C800.852 83.4121 803.156 83.4403 804.121 81.7616C805.591 79.2058 822.774 49.2585 823.625 47.7601C824.689 45.8904 823.337 43.9981 821.519 43.9981Z"/>
</mask>
<path fill-rule="evenodd" clip-rule="evenodd" d="M24.0006 3.99992C35.0462 3.99992 43.9994 12.9541 43.9994 23.9996C43.9994 35.0453 35.0462 43.9997 24.0006 43.9997C12.9537 43.9997 4.00052 35.0453 4.00052 23.9996C4.00052 12.9541 12.9537 3.99992 24.0006 3.99992ZM246.001 148.426L282.742 127.212V84.7859L246.001 63.5729L209.257 84.7859V127.212L246.001 148.426ZM1295 106C1295 89.9835 1282.02 76.9996 1266 76.9996C1249.98 76.9996 1237 89.9835 1237 106C1237 122.016 1249.98 135 1266 135C1282.02 135 1295 122.016 1295 106ZM821.519 43.9981H782.431C780.429 43.9981 779.457 46.0895 780.337 47.6833C781.537 49.8605 798.808 79.9217 799.886 81.7616C800.852 83.4121 803.156 83.4403 804.121 81.7616C805.591 79.2058 822.774 49.2585 823.625 47.7601C824.689 45.8904 823.337 43.9981 821.519 43.9981Z" fill="white" fill-opacity="0.01"/>
<path d="M282.742 127.212L284.742 130.676L286.742 129.522V127.212H282.742ZM246.001 148.426L244.001 151.89L246.001 153.045L248.001 151.89L246.001 148.426ZM282.742 84.7859H286.742V82.4765L284.742 81.3218L282.742 84.7859ZM246.001 63.5729L248.001 60.1088L246.001 58.9541L244.001 60.1088L246.001 63.5729ZM209.257 84.7859L207.257 81.3217L205.257 82.4764V84.7859H209.257ZM209.257 127.212H205.257V129.522L207.257 130.676L209.257 127.212ZM780.337 47.6833L783.841 45.7531L783.839 45.75L780.337 47.6833ZM799.886 81.7616L803.337 79.7402L803.337 79.7397L799.886 81.7616ZM804.121 81.7616L800.653 79.7674L800.653 79.7676L804.121 81.7616ZM823.625 47.7601L820.149 45.7822L820.148 45.7839L823.625 47.7601ZM47.9994 23.9996C47.9994 10.7452 37.2556 -7.60555e-05 24.0006 -7.60555e-05V7.99992C32.8368 7.99992 39.9994 15.163 39.9994 23.9996H47.9994ZM24.0006 47.9997C37.2557 47.9997 47.9994 37.2541 47.9994 23.9996H39.9994C39.9994 32.8365 32.8367 39.9997 24.0006 39.9997V47.9997ZM0.000524044 23.9996C0.000524044 37.2543 10.7444 47.9997 24.0006 47.9997V39.9997C15.163 39.9997 8.00052 32.8363 8.00052 23.9996H0.000524044ZM24.0006 -7.60555e-05C10.7445 -7.60555e-05 0.000524044 10.745 0.000524044 23.9996H8.00052C8.00052 15.1631 15.1629 7.99992 24.0006 7.99992V-7.60555e-05ZM280.742 123.748L244 144.962L248.001 151.89L284.742 130.676L280.742 123.748ZM278.742 84.7859V127.212H286.742V84.7859H278.742ZM244.001 67.037L280.742 88.25L284.742 81.3218L248.001 60.1088L244.001 67.037ZM211.257 88.25L248 67.037L244.001 60.1088L207.257 81.3217L211.257 88.25ZM213.257 127.212V84.7859H205.257V127.212H213.257ZM248.001 144.962L211.257 123.748L207.257 130.676L244.001 151.89L248.001 144.962ZM1266 80.9996C1279.81 80.9996 1291 92.1926 1291 106H1299C1299 87.7744 1284.22 72.9996 1266 72.9996V80.9996ZM1241 106C1241 92.1926 1252.19 80.9996 1266 80.9996V72.9996C1247.77 72.9996 1233 87.7744 1233 106H1241ZM1266 131C1252.19 131 1241 119.807 1241 106H1233C1233 124.225 1247.77 139 1266 139V131ZM1291 106C1291 119.807 1279.81 131 1266 131V139C1284.22 139 1299 124.225 1299 106H1291ZM782.431 47.9981H821.519V39.9981H782.431V47.9981ZM783.839 45.75C784.067 46.1625 784.072 46.674 783.837 47.1181C783.713 47.351 783.513 47.5831 783.233 47.7559C782.941 47.9355 782.647 47.9981 782.431 47.9981V39.9981C776.915 39.9981 774.716 45.7783 776.835 49.6166L783.839 45.75ZM803.337 79.7397C802.263 77.9067 785.014 47.8825 783.841 45.7531L776.834 49.6135C778.06 51.8386 795.352 81.9367 796.434 83.7835L803.337 79.7397ZM800.653 79.7676C800.909 79.3223 801.445 79.0076 802.021 79.0101C802.581 79.0125 803.088 79.314 803.337 79.7402L796.434 83.7831C798.908 88.0079 805.048 88.1726 807.588 83.7557L800.653 79.7676ZM820.148 45.7839C819.302 47.2713 802.125 77.2086 800.653 79.7674L807.588 83.7559C809.057 81.2031 826.245 51.2457 827.103 49.7363L820.148 45.7839ZM821.519 47.9981C821.015 47.9981 820.524 47.7297 820.24 47.2653C820.094 47.0252 820.005 46.7367 820.001 46.4344C819.997 46.1239 820.083 45.8968 820.149 45.7822L827.102 49.738C829.798 44.9983 826.167 39.9981 821.519 39.9981V47.9981Z" fill="#CAEDFF" mask="url(#path-1-outside-1)"/>
</g>
</svg>
