<svg width="315" height="73" viewBox="0 0 315 73" fill="none" xmlns="http://www.w3.org/2000/svg">
<path fill-rule="evenodd" clip-rule="evenodd" d="M37.6948 36.3698C37.9526 34.8972 38.2113 33.4198 38.4254 31.9399L38.6891 30.2078L38.6907 30.1977C39.2855 26.3116 39.9006 22.2934 38.9845 18.1292C37.7045 12.3006 34.4365 8.166 29.4341 5.98713C30.4027 5.39615 31.5665 4.74615 32.8962 4.10558C36.8577 2.19308 40.7349 0.971475 44.7538 0.370615C48.3375 -0.167715 51.3034 -0.0848401 54.1215 0.63341C60.3058 2.19868 64.2438 7.14257 64.3992 13.5404C64.5933 21.4326 63.5198 29.1558 62.198 37.7206L62.1034 38.4381C62.0221 39.1008 62.2387 39.8269 62.676 40.3303C63.1137 40.8309 63.7995 41.1358 64.4602 41.1358C65.6488 41.1358 67.1915 40.0386 69.0567 37.88C70.0919 36.6778 71.0211 35.449 71.8105 34.3923C75.5994 29.3191 79.7946 23.3022 81.5945 16.0744C83.047 10.2279 81.7523 5.70497 77.7466 2.63151C77.0632 2.10787 76.3304 1.68102 75.5455 1.34484C80.9808 -0.31 85.7195 -0.429665 90.5009 0.94411C96.1099 2.55734 99.8382 7.55597 99.9892 13.6803C100.179 20.9331 97.8648 27.979 92.9074 35.2207C84.4994 47.5134 74.253 55.4388 61.58 59.4457C56.1222 61.1739 51.3678 61.4537 46.8459 60.3158C40.8069 58.8036 36.7586 53.7268 36.534 47.3813C36.4024 43.7278 37.0286 40.1627 37.6905 36.394L37.6934 36.3777L37.6948 36.3698ZM25.3902 59.6395C21.1546 60.9028 17.1501 61.2397 13.1435 60.6867C5.98618 59.6914 1.21471 54.3595 0.988209 47.1059C0.769437 40.0477 3.03049 33.311 8.31923 25.267C10.3717 22.1456 13.0115 19.0289 16.3924 15.741C18.049 14.1326 20.3077 13.209 22.596 13.209C24.478 13.209 26.2519 13.8385 27.5894 14.984C31.1663 18.0472 31.8203 22.806 29.176 26.5521L28.9471 26.8743C26.2011 30.7651 23.3627 34.7882 21.3419 39.3691C20.0924 42.2012 19.2984 44.9678 18.9174 47.8253C18.4785 51.1175 19.4158 54.2909 21.5572 56.7638C22.6242 57.993 23.9334 58.9677 25.3902 59.6395Z" fill="#009FE3"/>
<path d="M146.247 31.8885L129.276 10.4149H123.982V45.0497H130.513V21.696L148.721 45.0992V45.0497H152.778V10.3654H146.247V31.8885ZM182.657 10.4644V30.3052C182.657 36.2426 179.59 39.8545 174.197 39.8545C168.803 39.8545 165.241 36.5394 165.241 30.3052V10.4644H158.759V30.3052C158.759 40.7451 165.835 45.7919 174.147 45.7919C182.855 45.7919 189.139 40.5472 189.139 30.3052V10.4644H182.657ZM201.764 30.0578H211.759C214.43 30.0578 218.24 31.6906 218.24 34.8077C218.24 38.0733 214.43 38.9639 211.759 38.9639H201.764V30.0578ZM201.764 16.3523H211.759C215.915 16.3523 217.201 19.0241 217.201 20.6074C217.201 22.5866 215.865 24.3183 211.759 24.3183H201.764V16.3523ZM211.759 10.4149C206.267 10.4149 200.774 10.4149 195.332 10.4149V45.0497C200.824 45.0497 206.267 45.0497 211.759 45.0497C218.933 45.0497 224.722 42.5758 224.722 34.8572C224.722 32.6801 223.238 28.3755 219.18 27.1386C222.396 25.7037 223.683 23.1308 223.683 20.459C223.683 13.4826 218.587 10.4149 211.759 10.4149ZM246.114 9.72223C234.141 9.72223 228.302 18.8757 228.302 27.9797C228.302 37.0837 233.943 45.8413 246.114 45.8413C258.286 45.8413 263.778 36.8858 263.877 27.9302C263.976 18.8757 258.039 9.72223 246.114 9.72223ZM246.114 15.6596C254.278 15.6596 257.544 22.1907 257.445 28.0292C257.346 33.7192 254.278 39.8545 246.114 39.8545C237.95 39.8545 234.883 33.7686 234.734 28.0786C234.586 22.2402 237.95 15.6596 246.114 15.6596ZM296.22 16.1049C293.598 10.7613 288.007 9.22745 282.614 9.22745C276.231 9.27692 269.205 12.1961 269.205 19.321C269.205 27.0891 275.736 28.9693 282.812 29.8104C287.413 30.3052 290.827 31.6411 290.827 34.9066C290.827 38.667 286.968 40.1019 282.861 40.1019C278.655 40.1019 274.648 38.4196 273.114 34.6098L267.671 37.43C270.244 43.7632 275.687 45.9403 282.762 45.9403C290.481 45.9403 297.309 42.6252 297.309 34.9066C297.309 26.6438 290.58 24.7636 283.356 23.873C279.2 23.3782 275.637 22.5371 275.637 19.5189C275.637 16.946 277.963 14.9174 282.812 14.9174C286.572 14.9174 289.838 16.7976 291.025 18.7767L296.22 16.1049Z" fill="#575556"/>
<path d="M130.999 65.9822V53.0205H129.009V67.7254H138.464V65.9822H130.999ZM146.845 57.2864C146.128 56.9377 145.389 56.7531 144.63 56.7531C143.113 56.7531 141.903 57.3069 140.98 58.3733C140.036 59.4398 139.565 60.8549 139.565 62.5777C139.565 64.3209 140.036 65.6745 140.959 66.6384C141.882 67.6229 143.031 68.1151 144.364 68.1151C144.897 68.1151 145.389 68.0536 145.82 67.951C146.64 67.7459 147.317 67.3973 147.85 66.864C148.199 66.5564 148.486 66.1667 148.753 65.6745C149.019 65.1823 149.163 64.7516 149.204 64.3619H147.44C147.317 64.8337 147.071 65.2438 146.763 65.613C146.189 66.2283 145.451 66.5359 144.507 66.5359C143.502 66.5359 142.744 66.2078 142.272 65.5515C141.8 64.8952 141.534 64.0338 141.492 62.9468H149.368C149.368 61.8599 149.306 61.06 149.204 60.5678C149.081 59.85 148.835 59.2142 148.486 58.681C148.117 58.1067 147.563 57.6555 146.845 57.2864ZM147.502 61.5112H141.554C141.575 60.5883 141.882 59.8295 142.436 59.2142C143.01 58.64 143.687 58.3323 144.528 58.3323C145.676 58.3323 146.517 58.763 146.989 59.6244C147.276 60.0961 147.44 60.7319 147.502 61.5112ZM153.75 56.9992V54.0049H151.925V56.9992H150.469V58.4759H151.925V65.572C151.925 66.2693 152.068 66.823 152.376 67.2537C152.683 67.6844 153.237 67.8895 154.078 67.8895C154.345 67.8895 154.591 67.8895 154.816 67.8485C155.042 67.828 155.247 67.7869 155.452 67.7254V66.3103C155.329 66.3103 155.206 66.3308 155.104 66.3308H154.837C154.509 66.3308 154.263 66.2898 154.119 66.2283C153.873 66.0847 153.75 65.8386 153.75 65.4694V58.4759H155.452V56.9992H153.75ZM165.679 67.7254V53.0205H163.669V67.7254H165.679ZM174.668 54.7638H179.631V53.0205H167.695V54.7638H172.658V67.7254H174.668V54.7638ZM191.188 56.9992L189.097 65.4489L187.025 56.9992H185.056L188.153 67.7254H190.019L192.132 59.4193L194.306 67.7254H196.193L199.31 56.9992H197.505L195.311 65.4079L193.198 56.9992H191.188ZM208.82 58.0657C207.876 57.1428 206.707 56.6916 205.313 56.6916C203.774 56.6916 202.544 57.2248 201.641 58.2913C200.719 59.3578 200.267 60.7934 200.267 62.5982C200.267 64.2799 200.698 65.613 201.559 66.6179C202.441 67.6229 203.61 68.1151 205.087 68.1151C206.851 68.1151 208.163 67.5613 209.004 66.4333C209.845 65.2848 210.255 63.8697 210.255 62.147C210.255 60.3422 209.784 58.9886 208.82 58.0657ZM207.712 65.2028C207.261 66.1052 206.441 66.5564 205.251 66.5564C204.164 66.5564 203.364 66.1872 202.872 65.4284C202.359 64.6696 202.113 63.7057 202.113 62.5777C202.113 61.3676 202.359 60.3627 202.872 59.5218C203.364 58.681 204.164 58.2708 205.272 58.2708C206.502 58.2708 207.384 58.763 207.897 59.7474C208.225 60.3832 208.368 61.1831 208.368 62.188C208.368 63.2955 208.163 64.3004 207.712 65.2028ZM214.145 58.845V56.9992H212.443V67.7254H214.248V61.5522C214.248 60.7934 214.494 60.1166 214.965 59.5424C215.458 58.9476 216.155 58.6605 217.057 58.6605C217.18 58.6605 217.283 58.6605 217.365 58.681C217.467 58.681 217.549 58.7015 217.652 58.722V56.8147L217.242 56.7736C217.16 56.7531 217.098 56.7531 217.078 56.7531C216.36 56.7531 215.745 57.0198 215.191 57.5325C214.637 58.0452 214.289 58.4964 214.145 58.845ZM220.913 61.5522V53.0205H219.17V67.7254H220.913V63.7057L222.431 62.3111L225.774 67.7254H228.071L223.743 61.019L227.845 56.9992H225.548L220.913 61.5522ZM236.014 53.7178C235.789 54.0665 235.666 54.6202 235.625 55.3585V57.0403H234.148V58.4759H235.625V67.7254H237.409V58.4759H239.214V57.0403H237.429C237.429 55.8918 237.491 55.174 237.593 54.8868C237.696 54.5997 238.024 54.4561 238.578 54.4561H238.824C238.906 54.4766 239.029 54.4766 239.214 54.4766V52.8359L238.803 52.8154C238.68 52.7949 238.557 52.7949 238.455 52.7949C237.265 52.7949 236.445 53.1231 236.014 53.7178ZM248.716 58.0657C247.772 57.1428 246.603 56.6916 245.209 56.6916C243.671 56.6916 242.44 57.2248 241.538 58.2913C240.615 59.3578 240.164 60.7934 240.164 62.5982C240.164 64.2799 240.594 65.613 241.456 66.6179C242.338 67.6229 243.507 68.1151 244.983 68.1151C246.747 68.1151 248.06 67.5613 248.9 66.4333C249.741 65.2848 250.151 63.8697 250.151 62.147C250.151 60.3422 249.68 58.9886 248.716 58.0657ZM247.608 65.2028C247.157 66.1052 246.337 66.5564 245.147 66.5564C244.06 66.5564 243.26 66.1872 242.768 65.4284C242.256 64.6696 242.009 63.7057 242.009 62.5777C242.009 61.3676 242.256 60.3627 242.768 59.5218C243.26 58.681 244.06 58.2708 245.168 58.2708C246.398 58.2708 247.28 58.763 247.793 59.7474C248.121 60.3832 248.265 61.1831 248.265 62.188C248.265 63.2955 248.06 64.3004 247.608 65.2028ZM254.041 58.845V56.9992H252.339V67.7254H254.144V61.5522C254.144 60.7934 254.39 60.1166 254.862 59.5424C255.354 58.9476 256.051 58.6605 256.954 58.6605C257.077 58.6605 257.179 58.6605 257.261 58.681C257.364 58.681 257.446 58.7015 257.548 58.722V56.8147L257.138 56.7736C257.056 56.7531 256.995 56.7531 256.974 56.7531C256.256 56.7531 255.641 57.0198 255.087 57.5325C254.533 58.0452 254.185 58.4964 254.041 58.845ZM273.511 56.9992H271.522L268.63 65.736L265.759 56.9992H263.708L267.686 68.033L267.235 69.1405C267.01 69.6327 266.907 69.8994 266.866 69.9609C266.764 70.125 266.62 70.2685 266.476 70.3711C266.312 70.4736 266.066 70.5351 265.738 70.5351C265.636 70.5351 265.512 70.5146 265.369 70.4941C265.225 70.4736 265 70.4326 264.692 70.33V71.9913C264.877 72.0323 265.061 72.0733 265.205 72.0938C265.328 72.1143 265.533 72.1143 265.779 72.1143C266.825 72.1143 267.543 71.8272 267.974 71.2119C268.404 70.6172 269.143 68.9559 270.189 66.2078C270.619 65.0593 271.173 63.5416 271.829 61.7163C272.691 59.2552 273.265 57.6965 273.511 56.9992ZM282.904 58.0657C281.961 57.1428 280.792 56.6916 279.397 56.6916C277.859 56.6916 276.628 57.2248 275.726 58.2913C274.803 59.3578 274.352 60.7934 274.352 62.5982C274.352 64.2799 274.783 65.613 275.644 66.6179C276.526 67.6229 277.695 68.1151 279.171 68.1151C280.935 68.1151 282.248 67.5613 283.089 66.4333C283.93 65.2848 284.34 63.8697 284.34 62.147C284.34 60.3422 283.868 58.9886 282.904 58.0657ZM281.797 65.2028C281.345 66.1052 280.525 66.5564 279.336 66.5564C278.249 66.5564 277.449 66.1872 276.956 65.4284C276.444 64.6696 276.198 63.7057 276.198 62.5777C276.198 61.3676 276.444 60.3627 276.956 59.5218C277.449 58.681 278.249 58.2708 279.356 58.2708C280.587 58.2708 281.468 58.763 281.981 59.7474C282.309 60.3832 282.453 61.1831 282.453 62.188C282.453 63.2955 282.248 64.3004 281.797 65.2028ZM288.271 64.1158V56.9992H286.425V64.3004C286.425 65.2028 286.589 65.9411 286.876 66.4744C287.43 67.4998 288.476 68.0125 290.014 68.0125C290.998 68.0125 291.819 67.7254 292.516 67.1717C292.865 66.8845 293.152 66.5564 293.377 66.1462L293.357 67.7254H295.059V56.9992H293.275V62.27C293.275 63.316 293.152 64.1363 292.885 64.7311C292.434 65.8591 291.572 66.4333 290.321 66.4333C289.46 66.4333 288.865 66.1052 288.537 65.4694C288.373 65.1208 288.271 64.6696 288.271 64.1158Z" fill="#575556"/>
</svg>
